<mxfile host="app.diagrams.net" modified="2021-06-03T08:58:59.890Z" agent="5.0 (Macintosh)" etag="IjgzqyFHS-ZZ9Xo4C10D" version="14.7.4" type="github">
  <diagram id="-lC3NIfXbfFzAgt0qEEv" name="Page-1">
    <mxGraphModel dx="1186" dy="651" grid="1" gridSize="10" guides="1" tooltips="1" connect="1" arrows="1" fold="1" page="1" pageScale="1" pageWidth="827" pageHeight="1169" math="0" shadow="0">
      <root>
        <mxCell id="0" />
        <mxCell id="1" parent="0" />
        <mxCell id="2R7QSPHp8HmsmAg64arW-2" value="Stakeholder 2" style="ellipse;whiteSpace=wrap;html=1;rounded=1;shadow=1;comic=0;labelBackgroundColor=none;strokeWidth=2;fontFamily=Verdana;fontSize=12;align=center;" vertex="1" parent="1">
          <mxGeometry x="340" y="70" width="120" height="80" as="geometry" />
        </mxCell>
        <mxCell id="2R7QSPHp8HmsmAg64arW-3" value="Stakeholder 1" style="ellipse;whiteSpace=wrap;html=1;rounded=1;shadow=1;comic=0;labelBackgroundColor=none;strokeWidth=2;fontFamily=Verdana;fontSize=12;align=center;" vertex="1" parent="1">
          <mxGeometry x="610" y="50" width="120" height="80" as="geometry" />
        </mxCell>
        <mxCell id="2R7QSPHp8HmsmAg64arW-4" value="External interfaces" style="ellipse;whiteSpace=wrap;html=1;rounded=1;shadow=1;comic=0;labelBackgroundColor=none;strokeWidth=2;fontFamily=Verdana;fontSize=12;align=center;" vertex="1" parent="1">
          <mxGeometry x="530" y="260" width="120" height="120" as="geometry" />
        </mxCell>
        <mxCell id="2R7QSPHp8HmsmAg64arW-5" value="Stakeholder 3" style="ellipse;whiteSpace=wrap;html=1;rounded=1;shadow=1;comic=0;labelBackgroundColor=none;strokeWidth=2;fontFamily=Verdana;fontSize=12;align=center;" vertex="1" parent="1">
          <mxGeometry x="280" y="230" width="120" height="80" as="geometry" />
        </mxCell>
        <mxCell id="2R7QSPHp8HmsmAg64arW-6" value="Stakeholder 9" style="ellipse;whiteSpace=wrap;html=1;rounded=1;shadow=1;comic=0;labelBackgroundColor=none;strokeWidth=2;fontFamily=Verdana;fontSize=12;align=center;" vertex="1" parent="1">
          <mxGeometry x="830" y="160" width="120" height="80" as="geometry" />
        </mxCell>
        <mxCell id="2R7QSPHp8HmsmAg64arW-7" value="Flow2&#39;" style="edgeStyle=none;rounded=1;html=1;labelBackgroundColor=none;startArrow=none;startFill=0;startSize=5;endArrow=classicThin;endFill=1;endSize=5;jettySize=auto;orthogonalLoop=1;strokeColor=#000000;strokeWidth=1;fontFamily=Verdana;fontSize=12" edge="1" parent="1" source="2R7QSPHp8HmsmAg64arW-4" target="2R7QSPHp8HmsmAg64arW-2">
          <mxGeometry relative="1" as="geometry" />
        </mxCell>
        <mxCell id="2R7QSPHp8HmsmAg64arW-8" value="Flow2" style="edgeStyle=none;rounded=1;html=1;labelBackgroundColor=none;startArrow=none;startFill=0;startSize=5;endArrow=classicThin;endFill=1;endSize=5;jettySize=auto;orthogonalLoop=1;strokeColor=#000000;strokeWidth=1;fontFamily=Verdana;fontSize=12" edge="1" parent="1" source="2R7QSPHp8HmsmAg64arW-4" target="2R7QSPHp8HmsmAg64arW-3">
          <mxGeometry x="0.2001" y="8" relative="1" as="geometry">
            <mxPoint as="offset" />
          </mxGeometry>
        </mxCell>
        <mxCell id="2R7QSPHp8HmsmAg64arW-9" value="Flow2&quot;" style="edgeStyle=none;rounded=1;html=1;labelBackgroundColor=none;startArrow=none;startFill=0;startSize=5;endArrow=classicThin;endFill=1;endSize=5;jettySize=auto;orthogonalLoop=1;strokeColor=#000000;strokeWidth=1;fontFamily=Verdana;fontSize=12;exitX=0;exitY=0.5;exitDx=0;exitDy=0;" edge="1" parent="1" source="2R7QSPHp8HmsmAg64arW-4" target="2R7QSPHp8HmsmAg64arW-5">
          <mxGeometry relative="1" as="geometry" />
        </mxCell>
        <mxCell id="2R7QSPHp8HmsmAg64arW-10" value="Flow3&quot;" style="edgeStyle=none;rounded=1;html=1;labelBackgroundColor=none;startArrow=none;startFill=0;startSize=5;endArrow=classicThin;endFill=1;endSize=5;jettySize=auto;orthogonalLoop=1;strokeColor=#000000;strokeWidth=1;fontFamily=Verdana;fontSize=12;exitX=0;exitY=1;exitDx=0;exitDy=0;entryX=1;entryY=1;entryDx=0;entryDy=0;" edge="1" parent="1" source="2R7QSPHp8HmsmAg64arW-4" target="2R7QSPHp8HmsmAg64arW-5">
          <mxGeometry relative="1" as="geometry">
            <mxPoint x="553.3281900445095" y="501.66843467219996" as="targetPoint" />
          </mxGeometry>
        </mxCell>
        <mxCell id="2R7QSPHp8HmsmAg64arW-11" value="Stakeholder 8" style="ellipse;whiteSpace=wrap;html=1;rounded=1;shadow=1;comic=0;labelBackgroundColor=none;strokeWidth=2;fontFamily=Verdana;fontSize=12;align=center;" vertex="1" parent="1">
          <mxGeometry x="850" y="370" width="120" height="80" as="geometry" />
        </mxCell>
        <mxCell id="2R7QSPHp8HmsmAg64arW-12" value="&lt;div&gt;Flow3&#39;&lt;br&gt;&lt;/div&gt;" style="edgeStyle=none;rounded=1;html=1;labelBackgroundColor=none;startArrow=none;startFill=0;startSize=5;endArrow=classicThin;endFill=1;endSize=5;jettySize=auto;orthogonalLoop=1;strokeColor=#000000;strokeWidth=1;fontFamily=Verdana;fontSize=12;entryX=1.025;entryY=0.413;entryDx=0;entryDy=0;entryPerimeter=0;" edge="1" parent="1" source="2R7QSPHp8HmsmAg64arW-4" target="2R7QSPHp8HmsmAg64arW-2">
          <mxGeometry x="0.2383" y="-12" relative="1" as="geometry">
            <mxPoint x="510" y="120" as="targetPoint" />
            <mxPoint y="1" as="offset" />
          </mxGeometry>
        </mxCell>
        <mxCell id="2R7QSPHp8HmsmAg64arW-13" value="Flow1&#39;" style="edgeStyle=none;rounded=1;html=1;labelBackgroundColor=none;startArrow=none;startFill=0;startSize=5;endArrow=classicThin;endFill=1;endSize=5;jettySize=auto;orthogonalLoop=1;strokeColor=#000000;strokeWidth=1;fontFamily=Verdana;fontSize=12;exitX=0;exitY=0;exitDx=0;exitDy=0;entryX=0;entryY=1;entryDx=0;entryDy=0;" edge="1" parent="1" source="2R7QSPHp8HmsmAg64arW-4" target="2R7QSPHp8HmsmAg64arW-2">
          <mxGeometry x="0.5686" y="14" relative="1" as="geometry">
            <mxPoint x="423" y="200" as="targetPoint" />
            <mxPoint y="1" as="offset" />
          </mxGeometry>
        </mxCell>
        <mxCell id="2R7QSPHp8HmsmAg64arW-14" value="Flow1&quot;" style="edgeStyle=none;rounded=1;html=1;labelBackgroundColor=none;startArrow=none;startFill=0;startSize=5;endArrow=classicThin;endFill=1;endSize=5;jettySize=auto;orthogonalLoop=1;strokeColor=#000000;strokeWidth=1;fontFamily=Verdana;fontSize=12;exitX=0.025;exitY=0.325;exitDx=0;exitDy=0;exitPerimeter=0;" edge="1" parent="1" source="2R7QSPHp8HmsmAg64arW-4">
          <mxGeometry x="0.2822" y="-11" relative="1" as="geometry">
            <mxPoint x="559.6522645490679" y="285.59211506972883" as="sourcePoint" />
            <mxPoint x="400" y="270" as="targetPoint" />
            <mxPoint as="offset" />
          </mxGeometry>
        </mxCell>
        <mxCell id="2R7QSPHp8HmsmAg64arW-15" value="Flow1" style="edgeStyle=none;rounded=1;html=1;labelBackgroundColor=none;startArrow=none;startFill=0;startSize=5;endArrow=classicThin;endFill=1;endSize=5;jettySize=auto;orthogonalLoop=1;strokeColor=#000000;strokeWidth=1;fontFamily=Verdana;fontSize=12;entryX=0;entryY=0.5;entryDx=0;entryDy=0;exitX=0.5;exitY=0;exitDx=0;exitDy=0;" edge="1" parent="1" source="2R7QSPHp8HmsmAg64arW-4" target="2R7QSPHp8HmsmAg64arW-3">
          <mxGeometry x="0.3925" y="14" relative="1" as="geometry">
            <mxPoint x="559.6522645490679" y="285.59211506972883" as="sourcePoint" />
            <mxPoint x="440.9895902142018" y="154.25165234201268" as="targetPoint" />
            <mxPoint as="offset" />
          </mxGeometry>
        </mxCell>
        <mxCell id="2R7QSPHp8HmsmAg64arW-16" value="&lt;div&gt;Flow3&lt;br&gt;&lt;/div&gt;" style="edgeStyle=none;rounded=1;html=1;labelBackgroundColor=none;startArrow=none;startFill=0;startSize=5;endArrow=classicThin;endFill=1;endSize=5;jettySize=auto;orthogonalLoop=1;strokeColor=#000000;strokeWidth=1;fontFamily=Verdana;fontSize=12;exitX=1;exitY=0;exitDx=0;exitDy=0;entryX=1;entryY=1;entryDx=0;entryDy=0;" edge="1" parent="1" source="2R7QSPHp8HmsmAg64arW-4" target="2R7QSPHp8HmsmAg64arW-3">
          <mxGeometry x="0.5817" y="-19" relative="1" as="geometry">
            <mxPoint x="619.5960379061314" y="273.2902539383167" as="sourcePoint" />
            <mxPoint x="666.4465710789027" y="138.9661081481545" as="targetPoint" />
            <mxPoint as="offset" />
          </mxGeometry>
        </mxCell>
        <mxCell id="2R7QSPHp8HmsmAg64arW-17" value="Flow4&quot;&quot;&quot;&quot;" style="edgeStyle=none;rounded=1;html=1;labelBackgroundColor=none;startArrow=none;startFill=0;startSize=5;endArrow=classicThin;endFill=1;endSize=5;jettySize=auto;orthogonalLoop=1;strokeColor=#000000;strokeWidth=1;fontFamily=Verdana;fontSize=12;exitX=0;exitY=0;exitDx=0;exitDy=0;" edge="1" parent="1" source="2R7QSPHp8HmsmAg64arW-6" target="2R7QSPHp8HmsmAg64arW-4">
          <mxGeometry x="-0.4622" y="-18" relative="1" as="geometry">
            <mxPoint x="650" y="320" as="sourcePoint" />
            <mxPoint x="620" y="100" as="targetPoint" />
            <mxPoint as="offset" />
          </mxGeometry>
        </mxCell>
        <mxCell id="2R7QSPHp8HmsmAg64arW-18" value="&lt;div&gt;&lt;div&gt;Flow3&quot;&quot;&quot;&quot;&lt;br&gt;&lt;/div&gt;&lt;/div&gt;" style="edgeStyle=none;rounded=1;html=1;labelBackgroundColor=none;startArrow=none;startFill=0;startSize=5;endArrow=classicThin;endFill=1;endSize=5;jettySize=auto;orthogonalLoop=1;strokeColor=#000000;strokeWidth=1;fontFamily=Verdana;fontSize=12;exitX=0.05;exitY=0.7;exitDx=0;exitDy=0;exitPerimeter=0;" edge="1" parent="1" source="2R7QSPHp8HmsmAg64arW-6">
          <mxGeometry x="-0.0356" y="-4" relative="1" as="geometry">
            <mxPoint x="837.5735931288073" y="211.71572875253833" as="sourcePoint" />
            <mxPoint x="650" y="303" as="targetPoint" />
            <mxPoint as="offset" />
          </mxGeometry>
        </mxCell>
        <mxCell id="2R7QSPHp8HmsmAg64arW-19" value="Flow2&quot;&quot;&quot;&quot;" style="edgeStyle=none;rounded=1;html=1;labelBackgroundColor=none;startArrow=none;startFill=0;startSize=5;endArrow=classicThin;endFill=1;endSize=5;jettySize=auto;orthogonalLoop=1;strokeColor=#000000;strokeWidth=1;fontFamily=Verdana;fontSize=12;exitX=0.308;exitY=0.988;exitDx=0;exitDy=0;exitPerimeter=0;entryX=1;entryY=0.5;entryDx=0;entryDy=0;" edge="1" parent="1" source="2R7QSPHp8HmsmAg64arW-6" target="2R7QSPHp8HmsmAg64arW-4">
          <mxGeometry x="-0.7164" y="4" relative="1" as="geometry">
            <mxPoint x="826" y="256" as="sourcePoint" />
            <mxPoint x="660" y="313" as="targetPoint" />
            <mxPoint as="offset" />
          </mxGeometry>
        </mxCell>
        <mxCell id="2R7QSPHp8HmsmAg64arW-20" value="Flow1&quot;&quot;&quot;&quot;" style="edgeStyle=none;rounded=1;html=1;labelBackgroundColor=none;startArrow=none;startFill=0;startSize=5;endArrow=classicThin;endFill=1;endSize=5;jettySize=auto;orthogonalLoop=1;strokeColor=#000000;strokeWidth=1;fontFamily=Verdana;fontSize=12;exitX=1;exitY=1;exitDx=0;exitDy=0;entryX=0.975;entryY=0.642;entryDx=0;entryDy=0;entryPerimeter=0;" edge="1" parent="1" source="2R7QSPHp8HmsmAg64arW-6" target="2R7QSPHp8HmsmAg64arW-4">
          <mxGeometry x="0.0387" y="16" relative="1" as="geometry">
            <mxPoint x="876.96" y="249.03999999999996" as="sourcePoint" />
            <mxPoint x="660" y="330" as="targetPoint" />
            <mxPoint as="offset" />
          </mxGeometry>
        </mxCell>
        <mxCell id="2R7QSPHp8HmsmAg64arW-21" value="Flow 2&quot;&quot;&quot;&#39;" style="edgeStyle=none;rounded=1;html=1;labelBackgroundColor=none;startArrow=none;startFill=0;startSize=5;endArrow=classicThin;endFill=1;endSize=5;jettySize=auto;orthogonalLoop=1;strokeColor=#000000;strokeWidth=1;fontFamily=Verdana;fontSize=12;exitX=0.95;exitY=0.775;exitDx=0;exitDy=0;exitPerimeter=0;entryX=0;entryY=0;entryDx=0;entryDy=0;" edge="1" parent="1" source="2R7QSPHp8HmsmAg64arW-4" target="2R7QSPHp8HmsmAg64arW-11">
          <mxGeometry x="0.2682" y="17" relative="1" as="geometry">
            <mxPoint x="857.5735931288073" y="181.7157287525381" as="sourcePoint" />
            <mxPoint x="870" y="390" as="targetPoint" />
            <mxPoint as="offset" />
          </mxGeometry>
        </mxCell>
        <mxCell id="2R7QSPHp8HmsmAg64arW-22" value="&lt;div&gt;Flow1&quot;&quot;&quot;&#39;&lt;br&gt;&lt;/div&gt;" style="edgeStyle=none;rounded=1;html=1;labelBackgroundColor=none;startArrow=none;startFill=0;startSize=5;endArrow=classicThin;endFill=1;endSize=5;jettySize=auto;orthogonalLoop=1;strokeColor=#000000;strokeWidth=1;fontFamily=Verdana;fontSize=12;exitX=1;exitY=1;exitDx=0;exitDy=0;entryX=0;entryY=0.5;entryDx=0;entryDy=0;" edge="1" parent="1" source="2R7QSPHp8HmsmAg64arW-4" target="2R7QSPHp8HmsmAg64arW-11">
          <mxGeometry x="0.4544" y="-3" relative="1" as="geometry">
            <mxPoint x="654" y="363" as="sourcePoint" />
            <mxPoint x="877.5735931288073" y="391.7157287525381" as="targetPoint" />
            <mxPoint as="offset" />
          </mxGeometry>
        </mxCell>
        <mxCell id="2R7QSPHp8HmsmAg64arW-23" value="Stakeholder 7" style="ellipse;whiteSpace=wrap;html=1;rounded=1;shadow=1;comic=0;labelBackgroundColor=none;strokeWidth=2;fontFamily=Verdana;fontSize=12;align=center;" vertex="1" parent="1">
          <mxGeometry x="767.5699999999999" y="487" width="120" height="80" as="geometry" />
        </mxCell>
        <mxCell id="2R7QSPHp8HmsmAg64arW-24" value="Flow2&quot;&quot;&quot;" style="edgeStyle=none;rounded=1;html=1;labelBackgroundColor=none;startArrow=none;startFill=0;startSize=5;endArrow=classicThin;endFill=1;endSize=5;jettySize=auto;orthogonalLoop=1;strokeColor=#000000;strokeWidth=1;fontFamily=Verdana;fontSize=12;exitX=1;exitY=1;exitDx=0;exitDy=0;entryX=0;entryY=0;entryDx=0;entryDy=0;" edge="1" parent="1" source="2R7QSPHp8HmsmAg64arW-4" target="2R7QSPHp8HmsmAg64arW-23">
          <mxGeometry x="0.2682" y="17" relative="1" as="geometry">
            <mxPoint x="561.5699999999999" y="470" as="sourcePoint" />
            <mxPoint x="787.5699999999999" y="507" as="targetPoint" />
            <mxPoint as="offset" />
          </mxGeometry>
        </mxCell>
        <mxCell id="2R7QSPHp8HmsmAg64arW-25" value="Flow1&quot;&quot;&quot;" style="edgeStyle=none;rounded=1;html=1;labelBackgroundColor=none;startArrow=none;startFill=0;startSize=5;endArrow=classicThin;endFill=1;endSize=5;jettySize=auto;orthogonalLoop=1;strokeColor=#000000;strokeWidth=1;fontFamily=Verdana;fontSize=12;exitX=0.675;exitY=1.008;exitDx=0;exitDy=0;entryX=0;entryY=0.5;entryDx=0;entryDy=0;exitPerimeter=0;" edge="1" parent="1" source="2R7QSPHp8HmsmAg64arW-4" target="2R7QSPHp8HmsmAg64arW-23">
          <mxGeometry x="0.4544" y="-3" relative="1" as="geometry">
            <mxPoint x="549.9964068711929" y="479.42640687119297" as="sourcePoint" />
            <mxPoint x="795.1435931288072" y="508.7157287525381" as="targetPoint" />
            <mxPoint as="offset" />
          </mxGeometry>
        </mxCell>
        <mxCell id="2R7QSPHp8HmsmAg64arW-26" value="Stakeholder 6" style="ellipse;whiteSpace=wrap;html=1;rounded=1;shadow=1;comic=0;labelBackgroundColor=none;strokeWidth=2;fontFamily=Verdana;fontSize=12;align=center;" vertex="1" parent="1">
          <mxGeometry x="576.5699999999999" y="549.57" width="120" height="80" as="geometry" />
        </mxCell>
        <mxCell id="2R7QSPHp8HmsmAg64arW-27" value="Flow1&quot;&quot;&#39;" style="edgeStyle=none;rounded=1;html=1;labelBackgroundColor=none;startArrow=none;startFill=0;startSize=5;endArrow=classicThin;endFill=1;endSize=5;jettySize=auto;orthogonalLoop=1;strokeColor=#000000;strokeWidth=1;fontFamily=Verdana;fontSize=12;exitX=0.617;exitY=1.017;exitDx=0;exitDy=0;entryX=0;entryY=0;entryDx=0;entryDy=0;exitPerimeter=0;" edge="1" parent="1" source="2R7QSPHp8HmsmAg64arW-4" target="2R7QSPHp8HmsmAg64arW-26">
          <mxGeometry x="0.0958" y="-4" relative="1" as="geometry">
            <mxPoint x="420" y="443.53000000000003" as="sourcePoint" />
            <mxPoint x="604.1435931288072" y="571.2857287525381" as="targetPoint" />
            <mxPoint x="-1" as="offset" />
          </mxGeometry>
        </mxCell>
        <mxCell id="2R7QSPHp8HmsmAg64arW-28" value="Flow2&quot;&quot;&#39;" style="edgeStyle=none;rounded=1;html=1;labelBackgroundColor=none;startArrow=none;startFill=0;startSize=5;endArrow=classicThin;endFill=1;endSize=5;jettySize=auto;orthogonalLoop=1;strokeColor=#000000;strokeWidth=1;fontFamily=Verdana;fontSize=12;exitX=0.642;exitY=1.017;exitDx=0;exitDy=0;exitPerimeter=0;" edge="1" parent="1" source="2R7QSPHp8HmsmAg64arW-4">
          <mxGeometry x="0.529" y="-3" relative="1" as="geometry">
            <mxPoint x="441.42640687119297" y="424.99640687119296" as="sourcePoint" />
            <mxPoint x="680" y="561" as="targetPoint" />
            <mxPoint as="offset" />
          </mxGeometry>
        </mxCell>
        <mxCell id="2R7QSPHp8HmsmAg64arW-29" value="Stakeholder 5" style="ellipse;whiteSpace=wrap;html=1;rounded=1;shadow=1;comic=0;labelBackgroundColor=none;strokeWidth=2;fontFamily=Verdana;fontSize=12;align=center;" vertex="1" parent="1">
          <mxGeometry x="379.99999999999994" y="549.57" width="120" height="80" as="geometry" />
        </mxCell>
        <mxCell id="2R7QSPHp8HmsmAg64arW-30" value="Flow2&quot;&quot;" style="edgeStyle=none;rounded=1;html=1;labelBackgroundColor=none;startArrow=none;startFill=0;startSize=5;endArrow=classicThin;endFill=1;endSize=5;jettySize=auto;orthogonalLoop=1;strokeColor=#000000;strokeWidth=1;fontFamily=Verdana;fontSize=12;exitX=1;exitY=0;exitDx=0;exitDy=0;entryX=0.5;entryY=1;entryDx=0;entryDy=0;" edge="1" parent="1" source="2R7QSPHp8HmsmAg64arW-29" target="2R7QSPHp8HmsmAg64arW-4">
          <mxGeometry x="-0.4812" y="-11" relative="1" as="geometry">
            <mxPoint x="543" y="309" as="sourcePoint" />
            <mxPoint x="410" y="280" as="targetPoint" />
            <mxPoint as="offset" />
          </mxGeometry>
        </mxCell>
        <mxCell id="2R7QSPHp8HmsmAg64arW-31" value="Flow1&quot;&quot;" style="edgeStyle=none;rounded=1;html=1;labelBackgroundColor=none;startArrow=none;startFill=0;startSize=5;endArrow=classicThin;endFill=1;endSize=5;jettySize=auto;orthogonalLoop=1;strokeColor=#000000;strokeWidth=1;fontFamily=Verdana;fontSize=12;exitX=0.258;exitY=0.068;exitDx=0;exitDy=0;entryX=0.5;entryY=1;entryDx=0;entryDy=0;exitPerimeter=0;" edge="1" parent="1" source="2R7QSPHp8HmsmAg64arW-29">
          <mxGeometry x="-0.6312" y="-15" relative="1" as="geometry">
            <mxPoint x="449.99640687119273" y="549.5657287525385" as="sourcePoint" />
            <mxPoint x="557.5700000000002" y="368.28" as="targetPoint" />
            <mxPoint as="offset" />
          </mxGeometry>
        </mxCell>
        <mxCell id="2R7QSPHp8HmsmAg64arW-32" value="Stakeholder 4" style="ellipse;whiteSpace=wrap;html=1;rounded=1;shadow=1;comic=0;labelBackgroundColor=none;strokeWidth=2;fontFamily=Verdana;fontSize=12;align=center;" vertex="1" parent="1">
          <mxGeometry x="239.99999999999994" y="460.00000000000006" width="120" height="80" as="geometry" />
        </mxCell>
        <mxCell id="2R7QSPHp8HmsmAg64arW-33" value="Flow1&quot;&#39;" style="edgeStyle=none;rounded=1;html=1;labelBackgroundColor=none;startArrow=none;startFill=0;startSize=5;endArrow=classicThin;endFill=1;endSize=5;jettySize=auto;orthogonalLoop=1;strokeColor=#000000;strokeWidth=1;fontFamily=Verdana;fontSize=12;exitX=0.5;exitY=0;exitDx=0;exitDy=0;entryX=0;entryY=1;entryDx=0;entryDy=0;" edge="1" parent="1" source="2R7QSPHp8HmsmAg64arW-32" target="2R7QSPHp8HmsmAg64arW-4">
          <mxGeometry x="-0.3028" y="17" relative="1" as="geometry">
            <mxPoint x="313.39000000000004" y="486.73000000000025" as="sourcePoint" />
            <mxPoint x="460.00000000000017" y="300" as="targetPoint" />
            <mxPoint as="offset" />
          </mxGeometry>
        </mxCell>
        <mxCell id="2R7QSPHp8HmsmAg64arW-34" value="Flow2&quot;&#39;" style="edgeStyle=none;rounded=1;html=1;labelBackgroundColor=none;startArrow=none;startFill=0;startSize=5;endArrow=classicThin;endFill=1;endSize=5;jettySize=auto;orthogonalLoop=1;strokeColor=#000000;strokeWidth=1;fontFamily=Verdana;fontSize=12;exitX=1;exitY=0.5;exitDx=0;exitDy=0;entryX=0;entryY=1;entryDx=0;entryDy=0;" edge="1" parent="1" source="2R7QSPHp8HmsmAg64arW-32" target="2R7QSPHp8HmsmAg64arW-4">
          <mxGeometry x="-0.5193" y="9" relative="1" as="geometry">
            <mxPoint x="310" y="470" as="sourcePoint" />
            <mxPoint x="557.573593128807" y="372.42640687119297" as="targetPoint" />
            <mxPoint as="offset" />
          </mxGeometry>
        </mxCell>
      </root>
    </mxGraphModel>
  </diagram>
</mxfile>
